PathFileType	4	(X/Y/Z)	c:/Users/goper/Files/vsCode/490R/osim_files/A06/A06_SSWS_05.trc
DataRate	CameraRate	NumFrames	NumMarkers	Units                	OrigDataRate	OrigDataStartFrame	OrigNumFrames
120.00	120.00	9	36	mm	120.0	789	1261
                Frame#	Time	LPSIS			LASIS			LTH1			LTH2			LTH3			LTH4			LLFE			LMFE			LSH1			LSH2			LSH3			LSH4			LLMAL			LMMAL			LCAL			LMTP5			LTOE			LMTP1			RPSIS			RASIS			RTH1			RTH2			RTH3			RTH4			RLFE			RMFE			RSH1			RSH2			RSH3			RSH4			RLMAL			RMMAL			RCAL			RMTP1			RTOE			RMTP5		
		X1	Y1	Z1	X2	Y2	Z2	X3	Y3	Z3	X4	Y4	Z4	X5	Y5	Z5	X6	Y6	Z6	X7	Y7	Z7	X8	Y8	Z8	X9	Y9	Z9	X10	Y10	Z10	X11	Y11	Z11	X12	Y12	Z12	X13	Y13	Z13	X14	Y14	Z14	X15	Y15	Z15	X16	Y16	Z16	X17	Y17	Z17	X18	Y18	Z18	X19	Y19	Z19	X20	Y20	Z20	X21	Y21	Z21	X22	Y22	Z22	X23	Y23	Z23	X24	Y24	Z24	X25	Y25	Z25	X26	Y26	Z26	X27	Y27	Z27	X28	Y28	Z28	X29	Y29	Z29	X30	Y30	Z30	X31	Y31	Z31	X32	Y32	Z32	X33	Y33	Z33	X34	Y34	Z34	X35	Y35	Z35	X36	Y36	Z36

789	6.56667	-605.79535	1006.60571	363.66302	-797.92810	947.51038	420.61890	-726.00714	585.81512	453.45230	-736.47504	545.30688	444.75232	-789.63123	592.23816	438.76559	-787.83368	549.30139	435.27576	-763.79022	474.82089	427.60089	-763.10400	469.65790	319.40768	-698.03534	383.35794	440.99588	-703.61658	336.52405	445.71570	-760.77045	381.71902	432.71365	-756.84320	339.91910	435.17474	-688.90540	89.02985	394.93259	-708.53961	103.14747	311.27353	-625.41846	79.85192	343.35062	-805.85242	41.08956	411.72427	-845.49402	62.43010	356.94235	-820.55176	54.56873	318.13669	-598.24487	1024.47620	233.20798	-768.04730	996.19086	168.89548	-753.48126	600.55688	132.56674	-769.97931	561.99664	135.35698	-810.79529	620.01477	145.11710	-821.30676	577.09259	143.02013	-823.64001	462.06168	166.32492	-819.88568	462.54816	255.28583	-709.13202	353.68152	173.65048	-680.03345	315.89456	174.35626	-753.52338	313.85092	189.12952	-718.05231	280.32465	183.46069	-592.84607	209.34198	160.57225	-601.30164	206.02208	245.25989	-533.02765	226.95100	205.20782	-677.58917	87.76789	245.10660	-699.31195	87.54833	206.56898	-671.69189	90.92299	156.80887
790	6.57500	-613.77802	1006.78613	363.77289	-805.97662	947.89685	420.52121	-729.31232	586.91718	452.05408	-739.67218	545.53607	444.47128	-793.56580	591.61115	438.19916	-791.32617	548.74713	434.82764	-766.10675	474.51804	427.12122	-765.39990	469.00137	318.83591	-700.90369	382.89969	440.79459	-705.12592	336.70331	445.36295	-762.62146	381.59534	432.33179	-758.44611	339.67725	434.72858	-689.04608	89.11286	394.81506	-708.57458	103.11352	311.08099	-625.47156	79.97235	343.31006	-805.88605	41.05028	411.76141	-845.54810	62.26362	356.92996	-820.60046	54.39967	318.15887	-605.98267	1024.76965	233.44975	-775.73236	996.84119	168.85123	-765.48920	602.20190	132.29199	-782.60913	563.88837	135.11569	-822.32953	622.77118	145.48766	-833.75153	579.79706	142.90987	-837.92963	464.74274	166.01112	-833.88153	465.14639	254.83672	-728.22357	351.85269	173.32719	-700.74658	312.55667	174.06355	-774.16003	313.64798	188.81435	-740.17474	278.72083	183.17783	-618.70789	201.80037	159.64923	-626.75134	199.38347	244.88312	-557.49323	216.85765	205.11790	-708.10284	84.43383	244.71584	-729.94598	85.27990	206.33138	-702.82996	87.85210	156.16093
791	6.58333	-621.65167	1006.86230	363.95630	-814.03003	948.07587	420.43805	-733.35834	587.26581	451.55402	-743.28961	545.66382	444.10489	-797.54346	591.10669	437.75433	-794.65826	548.20673	434.47256	-768.48425	474.33112	426.70114	-767.80511	468.54083	318.41382	-702.79340	383.08377	440.54474	-706.75299	336.85645	445.07541	-764.49200	381.37720	431.95792	-760.11377	339.56186	434.35831	-689.26074	89.20991	394.65894	-708.61652	103.09702	310.88181	-625.82648	79.73314	342.97186	-805.93976	41.04029	411.78647	-845.64954	62.11318	356.88589	-820.67114	54.26978	318.16306	-613.71100	1025.00830	233.66444	-782.95923	997.16693	168.97000	-777.15161	603.71393	132.05290	-794.86786	565.63336	134.76628	-833.49554	625.04492	145.34518	-845.58722	582.17261	142.74751	-851.39758	467.21454	165.59068	-846.79456	467.50146	253.92329	-746.99048	349.35153	172.99292	-721.57568	308.91577	173.58742	-793.86908	313.11105	188.60823	-762.36273	276.90482	182.72089	-644.54590	194.42659	159.31053	-652.64386	192.37155	244.54575	-583.02533	207.45967	204.51660	-738.74982	81.17928	244.29120	-760.68115	83.08318	205.94350	-733.86621	84.45880	155.82492
792	6.59167	-629.57996	1006.74170	364.13776	-822.09277	948.28625	420.12329	-737.37921	587.59869	451.02960	-746.53455	545.86243	443.74567	-801.52679	590.53003	437.31110	-798.11652	547.70123	434.09659	-770.82697	474.10699	426.33643	-770.39587	468.12112	317.44373	-704.78705	383.29480	440.18210	-708.50909	337.04758	444.71536	-766.45490	381.10046	431.55139	-761.69287	339.42661	433.97888	-689.40833	89.30259	394.46384	-708.88574	103.04719	310.55661	-624.87823	80.49629	343.40952	-805.94641	41.05056	411.79327	-845.70203	62.01051	356.85303	-821.09741	54.38692	318.18961	-621.41925	1025.11865	233.79869	-791.07990	997.62939	168.65417	-787.18243	605.61041	132.09583	-806.55536	567.42310	134.23982	-844.38232	626.95251	145.05054	-856.99390	584.19128	142.26834	-864.29742	469.31531	164.97003	-859.43158	468.61664	253.89528	-765.71338	346.61105	172.41093	-742.29572	305.14682	173.10722	-814.85834	312.65845	187.96725	-784.34869	274.87067	182.27283	-670.55969	186.88821	159.00566	-678.77649	185.34952	244.16785	-608.50299	196.99992	204.16579	-770.04340	78.24440	244.08229	-792.00574	81.25085	205.62970	-765.17401	81.23158	155.49223
793	6.60000	-637.40338	1006.50769	364.33182	-830.12842	948.28436	419.83383	-741.37646	587.93958	450.55972	-749.87671	546.07788	443.44272	-805.66315	589.86365	436.86563	-801.45172	547.06537	433.73267	-773.27618	473.86536	425.91571	-772.93988	467.80884	316.81012	-706.84497	383.51337	439.90039	-710.12451	337.21399	444.41068	-768.37683	381.00882	431.23956	-763.38440	339.23920	433.63263	-689.59601	89.40938	394.30026	-708.96503	103.08454	310.36267	-624.96204	80.61337	343.33588	-805.23456	41.06015	412.02695	-846.34271	62.21782	356.65439	-821.15985	54.26676	318.18530	-629.16467	1024.93250	234.04718	-798.75287	997.85742	168.42538	-797.38654	606.49719	131.93132	-817.76941	568.54083	133.72444	-854.93634	628.48828	144.66812	-867.97980	585.75336	141.81146	-876.74750	471.20679	164.20821	-872.55841	470.76230	253.51910	-784.13397	343.42798	171.84459	-762.68066	300.84100	172.67906	-834.70258	311.90668	187.49319	-807.13080	273.37228	181.31392	-697.24384	179.41058	158.58794	-705.77515	177.85066	243.61516	-634.37695	186.30710	203.78531	-801.98932	75.84153	243.92223	-823.63904	79.81621	205.30569	-796.65961	78.25636	155.14861
794	6.60833	-645.24872	1006.11859	364.44684	-838.06012	948.18988	419.53967	-745.60455	588.25024	450.03864	-753.50183	546.27087	443.01956	-809.85651	589.33881	436.62976	-805.03717	546.43494	433.37372	-775.78625	473.62991	425.59665	-775.60602	467.38809	315.95450	-708.83514	383.74496	439.52179	-711.85376	337.41489	444.15012	-770.14337	381.00397	430.88281	-765.16351	339.03729	433.14224	-689.74719	89.54405	394.12329	-709.10175	103.08660	310.15845	-625.10718	80.71989	343.24515	-806.04260	41.02268	411.82510	-846.49084	61.96261	356.46817	-821.20068	54.10351	318.16296	-637.01447	1024.72961	234.21378	-806.51941	997.94128	168.22324	-807.64154	607.16138	131.44606	-828.36981	569.36682	133.14165	-864.97339	629.59088	144.18353	-878.39099	586.86627	141.11232	-888.13068	472.35165	163.38118	-883.09308	471.12860	252.35887	-802.34027	339.84225	171.27237	-783.18921	296.27722	172.13744	-853.83020	310.98694	187.00029	-828.85876	271.13458	180.71953	-723.82690	171.65845	158.35742	-731.93219	170.79643	243.32274	-660.32208	175.73859	203.63626	-834.75757	74.33212	244.05765	-855.68158	78.92982	204.89636	-827.99341	75.30988	155.07391
795	6.61667	-653.02881	1005.57721	364.61429	-846.07904	948.04175	419.20230	-749.94489	588.51019	449.54123	-757.00989	546.41333	442.67877	-814.18262	588.68018	436.26184	-808.78851	545.87079	433.08267	-778.46857	473.35052	425.24695	-777.76764	467.23624	316.39322	-710.89032	384.02008	439.20670	-713.67877	337.65286	443.79358	-772.28308	380.75513	430.63089	-766.99005	338.89551	432.87094	-689.83075	89.69856	393.96606	-708.99860	103.07859	309.97079	-625.26959	80.86942	343.28369	-806.04932	41.00528	411.82391	-846.53107	61.81180	356.43396	-822.12860	54.55350	317.99832	-644.64362	1024.28467	234.40720	-814.28015	997.75537	168.05225	-817.43176	607.45941	130.84090	-838.41797	569.78345	132.50487	-874.81036	630.20917	143.71669	-888.24725	587.37866	140.47314	-898.79053	473.01086	162.54214	-893.92932	471.66412	251.46542	-820.20380	336.14856	170.56139	-803.44659	291.57288	171.49556	-874.32684	310.42969	185.68486	-850.46539	268.89331	180.04643	-750.70392	163.91708	158.08813	-759.17590	163.57446	242.92503	-689.24725	162.98767	202.01370	-866.81104	72.27334	244.04823	-887.72107	78.66868	204.53954	-860.33319	73.49045	154.70795
796	6.62500	-660.88696	1004.83344	364.65613	-854.08435	947.67761	418.95386	-754.53442	588.64166	449.13052	-761.11560	546.33777	442.27573	-818.62354	587.90015	435.75064	-812.69830	545.10419	432.68539	-781.29657	472.97379	424.83743	-780.43524	466.73499	315.85587	-713.13867	384.21667	438.89322	-715.65802	337.78909	443.55234	-774.37750	380.46658	430.26038	-768.95337	338.67328	432.46811	-689.99146	89.79253	393.83752	-709.04028	103.14369	309.80725	-625.36530	80.99702	343.21323	-806.12079	40.92516	411.85120	-846.58136	61.61405	356.41711	-822.76477	54.51071	318.11801	-652.64056	1023.64374	234.38136	-822.19275	997.57819	167.79247	-826.90070	607.43365	130.27428	-847.96167	569.86993	131.73123	-884.16052	630.41003	143.09734	-897.19476	587.36847	139.92186	-908.83136	473.17871	161.52802	-904.10907	471.64267	250.44878	-837.89581	332.12097	170.05838	-823.68567	286.67920	170.86903	-892.88483	309.11728	185.35820	-871.68732	266.56174	179.52155	-777.92120	156.19075	157.58861	-787.01923	156.39545	242.40697	-716.01794	152.37604	202.21729	-899.21606	71.33982	243.49680	-919.47797	78.56226	203.92474	-892.93994	72.36092	153.78044
797	6.63333	-668.73975	1003.98041	364.68555	-862.05951	947.29968	418.68677	-759.33771	588.64575	448.74753	-765.20282	546.35919	441.96896	-823.37854	586.72308	435.12878	-816.88141	544.23193	432.25122	-784.29730	472.54099	424.45145	-783.37531	466.30951	315.38211	-715.51849	384.31824	438.56641	-717.52722	337.99838	443.20013	-776.88513	380.18655	429.85834	-770.77014	338.36734	432.22134	-690.18927	89.89758	393.71671	-709.15564	102.92547	309.32675	-625.49457	81.08052	343.15955	-806.14569	40.86014	411.88116	-846.40826	61.25095	356.35156	-822.84424	54.36519	318.10345	-660.41809	1022.86224	234.50964	-830.55658	997.41754	167.84904	-835.96454	607.06879	129.57964	-857.19006	569.56555	130.95526	-893.08521	630.12982	142.48471	-905.83331	586.83368	139.34404	-918.23474	472.87473	160.45934	-913.68793	471.19724	249.36740	-855.55505	327.77728	169.09364	-843.74298	281.84601	170.25389	-911.49139	308.01431	184.55302	-892.17981	263.84793	179.13779	-805.55048	148.85242	157.13629	-814.27155	149.91458	242.16066	-743.96210	141.58163	201.89839	-931.43579	71.15459	242.73801	-951.49609	79.77573	203.50964	-924.82080	71.53066	153.36996
